<?xml version="1.0" encoding="UTF-8" standalone="no"?>
<svg
   xmlns:dc="http://purl.org/dc/elements/1.1/"
   xmlns:cc="http://creativecommons.org/ns#"
   xmlns:rdf="http://www.w3.org/1999/02/22-rdf-syntax-ns#"
   xmlns:svg="http://www.w3.org/2000/svg"
   xmlns="http://www.w3.org/2000/svg"
   xmlns:sodipodi="http://sodipodi.sourceforge.net/DTD/sodipodi-0.dtd"
   xmlns:inkscape="http://www.inkscape.org/namespaces/inkscape"
   version="1.1"
   id="svg2"
   xml:space="preserve"
   width="816"
   height="1056"
   viewBox="0 0 816 1056"
   sodipodi:docname="openwrt logo.ai"><metadata
     id="metadata8"><rdf:RDF><cc:Work
         rdf:about=""><dc:format>image/svg+xml</dc:format><dc:type
           rdf:resource="http://purl.org/dc/dcmitype/StillImage" /></cc:Work></rdf:RDF></metadata><defs
     id="defs6"><clipPath
       clipPathUnits="userSpaceOnUse"
       id="clipPath30"><path
         d="M 0,792 H 612 V 0 H 0 Z"
         id="path28" /></clipPath><clipPath
       clipPathUnits="userSpaceOnUse"
       id="clipPath38"><path
         d="M 49.6232,510.366 H 190.486 V 369.545 H 49.6232 Z"
         id="path36" /></clipPath></defs><sodipodi:namedview
     pagecolor="#ffffff"
     bordercolor="#666666"
     borderopacity="1"
     objecttolerance="10"
     gridtolerance="10"
     guidetolerance="10"
     inkscape:pageopacity="0"
     inkscape:pageshadow="2"
     inkscape:window-width="640"
     inkscape:window-height="480"
     id="namedview4" /><g
     id="g10"
     inkscape:groupmode="layer"
     inkscape:label="openwrt logo"
     transform="matrix(1.3333333,0,0,-1.3333333,0,1056)"><text
       transform="matrix(1,0,0,-1,186.3335,415.2183)"
       style="font-variant:normal;font-weight:bold;font-stretch:normal;font-size:70px;font-family:Montserrat;-inkscape-font-specification:Montserrat-Bold;writing-mode:lr-tb;fill:#0e2744;fill-opacity:1;fill-rule:nonzero;stroke:none"
       id="text14"><tspan
         x="0"
         y="0"
         id="tspan12">{</tspan></text><text
       transform="matrix(1,0,0,-1,219.3623,415.2183)"
       style="font-variant:normal;font-weight:bold;font-stretch:normal;font-size:70px;font-family:Montserrat;-inkscape-font-specification:Montserrat-Bold;writing-mode:lr-tb;fill:#0e2744;fill-opacity:1;fill-rule:nonzero;stroke:none"
       id="text18"><tspan
         x="0 29.540001 73.709999 110.88 141.33 159.67 200.55 246.39999 294.76999"
         y="0"
         sodipodi:role="line"
         id="tspan16">rest:conf</tspan></text><text
       transform="matrix(1,0,0,-1,547.1626,415.2183)"
       style="font-variant:normal;font-weight:bold;font-stretch:normal;font-size:70px;font-family:Montserrat;-inkscape-font-specification:Montserrat-Bold;writing-mode:lr-tb;fill:#0e2744;fill-opacity:1;fill-rule:nonzero;stroke:none"
       id="text22"><tspan
         x="0"
         y="0"
         id="tspan20">}</tspan></text><g
       id="g24"><g
         id="g26"
         clip-path="url(#clipPath30)"><g
           id="g32"><g
             id="g34" /><g
             id="g66"><g
               clip-path="url(#clipPath38)"
               id="g64"><g
                 transform="translate(109.2253,428.3115)"
                 id="g42"><path
                   d="m 0,0 c -0.068,-4.846 4.523,-9.509 9.342,-9.487 4.539,0.021 9.08,4.612 9.219,9.32 C 18.701,4.567 14.357,9.042 9.52,9.146 4.452,9.254 0.071,5.046 0,0 M 8.961,30.877 C 2.186,30.862 -4.161,28.323 -9.936,24.106 c -2.091,-1.527 -2.696,-2.969 -0.367,-4.914 1.958,-1.634 3.784,-3.46 5.466,-5.378 1.306,-1.488 2.124,-1.246 3.65,-0.159 5.532,3.941 11.539,4.213 17.872,1.946 1.998,-0.715 3.176,-3.745 5.451,-2.666 1.881,0.891 3.196,2.978 4.761,4.536 0.742,0.738 1.413,1.569 2.237,2.199 1.892,1.447 1.76,2.714 -0.102,4.055 -5.866,4.226 -12.205,7.126 -20.071,7.152 m 0.46,23.796 c -3.282,0.148 -6.509,-0.157 -9.734,-0.719 -10.494,-1.827 -19.508,-6.618 -27.515,-13.512 -1.472,-1.267 -1.658,-2.256 -0.098,-3.609 2.197,-1.906 4.362,-3.874 6.335,-6.005 1.42,-1.533 2.276,-1.151 3.676,0.067 14.121,12.285 33.844,13.668 49.551,3.72 2.493,-1.579 4.633,-5.307 7.257,-4.582 2.653,0.734 4.456,4.227 6.873,6.218 2.364,1.95 1.681,3.203 -0.278,4.868 C 35.073,49.972 23.156,54.732 9.421,54.673 M 9.541,78.6 C 4.413,78.648 -0.708,78.415 -5.736,77.395 -18.739,74.757 -30.437,69.372 -40.662,60.799 c -7.781,-6.525 -6.395,-4.838 -0.586,-10.236 4.437,-4.123 4.415,-3.956 9.138,-0.223 15.941,12.603 33.904,17.391 53.969,13.54 12.054,-2.313 22.672,-7.597 31.592,-16.071 1.576,-1.497 2.516,-1.551 3.913,0.073 1.514,1.762 3.108,3.53 4.95,4.921 2.898,2.189 2.271,3.687 -0.199,5.792 C 46.945,71.52 29.713,78.893 9.541,78.6 m 3.385,-133.349 c 7.05,-0.133 17.064,2.978 26.368,8.89 25.764,16.371 32.708,53.273 14.552,77.708 -1.231,1.656 -2.022,2.225 -3.563,0.304 -1.598,-1.99 -3.396,-3.876 -5.362,-5.5 C 42.957,25.03 42.893,23.826 44.273,21.611 60.308,-4.124 43.756,-37.941 13.63,-41.18 c -31.389,-3.374 -54.866,29.028 -42.149,58.058 1.205,2.751 4.738,5.126 3.556,8.05 -1.088,2.689 -4.193,4.563 -6.41,6.796 -0.164,0.166 -0.353,0.313 -0.492,0.497 -1.193,1.576 -2.058,1.663 -3.31,-0.17 -5.613,-8.224 -9.347,-17.172 -10.21,-27.105 -2.788,-32.096 22.183,-59.439 58.311,-59.695 m -1.961,-3.962 c -22.619,0 -45.238,0.034 -67.857,-0.056 -2.164,-0.008 -2.694,0.461 -2.691,2.67 0.077,45.121 0.087,90.243 -0.019,135.365 -0.006,2.556 0.725,2.78 2.953,2.776 45.005,-0.074 90.011,-0.079 135.016,0.011 2.375,0.005 2.882,-0.441 2.876,-2.856 -0.093,-45.005 -0.103,-90.01 0.017,-135.015 0.008,-2.743 -0.829,-2.956 -3.137,-2.947 -22.386,0.086 -44.772,0.052 -67.158,0.052"
                   style="fill:#fbfbfc;fill-opacity:1;fill-rule:nonzero;stroke:none"
                   id="path40" /></g><g
                 transform="translate(122.151,373.5622)"
                 id="g46"><path
                   d="m 0,0 c -36.128,0.256 -61.098,27.6 -58.311,59.695 0.863,9.933 4.597,18.882 10.211,27.105 1.251,1.833 2.116,1.747 3.309,0.17 0.14,-0.184 0.328,-0.331 0.492,-0.496 2.217,-2.233 5.322,-4.107 6.41,-6.797 1.182,-2.924 -2.351,-5.299 -3.556,-8.05 -12.717,-29.03 10.761,-61.431 42.149,-58.057 30.126,3.238 46.679,37.055 30.643,62.791 -1.38,2.215 -1.316,3.419 0.649,5.041 1.965,1.624 3.763,3.51 5.361,5.501 1.542,1.92 2.333,1.352 3.564,-0.305 C 59.076,62.163 52.132,25.261 26.369,8.89 17.064,2.978 7.05,-0.133 0,0"
                   style="fill:#0e2744;fill-opacity:1;fill-rule:nonzero;stroke:none"
                   id="path44" /></g><g
                 transform="translate(118.7633,506.9122)"
                 id="g50"><path
                   d="m 0,0 c 20.175,0.293 37.407,-7.081 52.577,-20.006 2.47,-2.105 3.097,-3.603 0.199,-5.792 -1.842,-1.391 -3.436,-3.158 -4.95,-4.92 -1.397,-1.625 -2.337,-1.571 -3.913,-0.074 -8.92,8.474 -19.538,13.758 -31.592,16.071 -20.065,3.851 -38.028,-0.937 -53.969,-13.539 -4.723,-3.734 -4.701,-3.901 -9.138,0.222 -5.809,5.398 -7.195,3.711 0.586,10.236 10.225,8.573 21.923,13.958 34.926,16.596 C -10.246,-0.186 -5.125,0.048 0,0"
                   style="fill:#4fafe2;fill-opacity:1;fill-rule:nonzero;stroke:none"
                   id="path48" /></g><g
                 transform="translate(118.6468,482.9842)"
                 id="g54"><path
                   d="m 0,0 c 13.734,0.059 25.651,-4.701 36.067,-13.554 1.959,-1.665 2.642,-2.918 0.277,-4.867 -2.416,-1.992 -4.219,-5.485 -6.872,-6.218 -2.624,-0.726 -4.764,3.002 -7.257,4.581 -15.708,9.948 -35.43,8.566 -49.552,-3.72 -1.4,-1.218 -2.255,-1.6 -3.675,-0.066 -1.974,2.131 -4.138,4.098 -6.335,6.004 -1.561,1.354 -1.375,2.343 0.097,3.61 8.007,6.893 17.021,11.685 27.516,13.512 C -6.51,-0.157 -3.282,0.148 0,0"
                   style="fill:#4fafe2;fill-opacity:1;fill-rule:nonzero;stroke:none"
                   id="path52" /></g><g
                 transform="translate(118.1863,459.1888)"
                 id="g58"><path
                   d="m 0,0 c 7.866,-0.027 14.205,-2.926 20.071,-7.152 1.862,-1.341 1.994,-2.609 0.102,-4.055 -0.824,-0.63 -1.495,-1.461 -2.237,-2.199 -1.565,-1.558 -2.88,-3.645 -4.761,-4.537 -2.275,-1.078 -3.453,1.952 -5.451,2.667 -6.333,2.266 -12.34,1.995 -17.872,-1.947 -1.526,-1.087 -2.344,-1.329 -3.65,0.16 -1.682,1.918 -3.508,3.744 -5.466,5.378 -2.329,1.945 -1.724,3.387 0.367,4.913 C -13.122,-2.554 -6.775,-0.016 0,0"
                   style="fill:#52afe1;fill-opacity:1;fill-rule:nonzero;stroke:none"
                   id="path56" /></g><g
                 transform="translate(109.2253,428.3115)"
                 id="g62"><path
                   d="M 0,0 C 0.071,5.046 4.452,9.254 9.52,9.146 14.357,9.042 18.701,4.567 18.561,-0.167 18.422,-4.875 13.881,-9.466 9.342,-9.487 4.523,-9.509 -0.068,-4.846 0,0"
                   style="fill:#51aedf;fill-opacity:1;fill-rule:nonzero;stroke:none"
                   id="path60" /></g></g></g></g></g></g></g></svg>
